<svg t="1572330887273" class="icon" viewBox="0 0 1024 1024" version="1.1" 
xmlns="http://www.w3.org/2000/svg" 
p-id="4323" width="200" height="200">
<path d="M794.03 836.07h-35.12v-65.99c0-14.7-11.91-26.61-26.61-26.61s-26.61 11.91-26.61 26.61v92.59c0 14.7 11.91 26.61 26.61 26.61h61.73c14.7 0 26.61-11.91 26.61-26.61 0-14.69-11.91-26.6-26.61-26.6z" fill="#ffffff" p-id="4324"></path><path d="M551.89 963.79H184.2c-14.67 0-26.61-11.94-26.61-26.61V86.82c0-14.67 11.94-26.61 26.61-26.61h554.49c14.67 0 26.61 11.94 26.61 26.61v508.71c0 14.7 11.91 26.61 26.61 26.61s26.61-11.91 26.61-26.61V86.82C818.51 42.81 782.7 7 738.69 7H184.2c-44.01 0-79.82 35.81-79.82 79.82v850.36c0 44.01 35.81 79.82 79.82 79.82h367.69c14.7 0 26.61-11.91 26.61-26.61 0-14.69-11.91-26.6-26.61-26.6z" fill="#ffffff" p-id="4325"></path><path d="M737.63 653.02c-100.35 0-181.99 81.64-181.99 181.99S637.28 1017 737.63 1017s181.99-81.64 181.99-181.99-81.64-181.99-181.99-181.99z m0 310.77c-71.01 0-128.78-57.77-128.78-128.78s57.77-128.78 128.78-128.78S866.4 764 866.4 835.01s-57.76 128.78-128.77 128.78zM662.06 149.61H276.79c-14.69 0-26.61 11.91-26.61 26.61s11.91 26.61 26.61 26.61h385.27c14.69 0 26.61-11.91 26.61-26.61s-11.91-26.61-26.61-26.61zM688.67 376.66c0-14.69-11.91-26.61-26.61-26.61H276.79c-14.69 0-26.61 11.91-26.61 26.61 0 14.69 11.91 26.61 26.61 26.61h385.27c14.7 0 26.61-11.92 26.61-26.61zM608.85 577.1c0-14.69-11.91-26.61-26.61-26.61H276.79c-14.69 0-26.61 11.91-26.61 26.61s11.91 26.61 26.61 26.61h305.45c14.7 0 26.61-11.92 26.61-26.61zM276.79 750.93c-14.69 0-26.61 11.91-26.61 26.61s11.91 26.61 26.61 26.61H452.4c14.69 0 26.61-11.91 26.61-26.61s-11.91-26.61-26.61-26.61H276.79z" fill="#ffffff" p-id="4326"></path></svg>