<?xml version="1.0" standalone="no"?><!DOCTYPE svg PUBLIC "-//W3C//DTD SVG 1.1//EN" "http://www.w3.org/Graphics/SVG/1.1/DTD/svg11.dtd"><svg t="1544602424987" class="icon" style="" viewBox="0 0 1024 1024" version="1.1" xmlns="http://www.w3.org/2000/svg" p-id="864" xmlns:xlink="http://www.w3.org/1999/xlink" width="200" height="200"><defs><style type="text/css"></style></defs><path d="M870.543979 840.620459 272.978185 840.620459c-32.999578 0-59.756989-26.706245-59.756989-59.725266L213.221196 123.594923c0-33.017998 26.75741-59.754942 59.756989-59.754942l597.565794 0c32.995485 0 59.746756 26.735921 59.746756 59.754942l0 657.301294C930.290735 813.914214 903.540488 840.620459 870.543979 840.620459zM870.543979 153.472394c0-16.503882-13.373589-29.877471-29.878494-29.877471L302.856679 123.594923c-16.504906 0-29.878494 13.373589-29.878494 29.877471l0 597.546352c0 16.48444 13.373589 29.877471 29.878494 29.877471l537.809829 0c16.504906 0 29.878494-13.393032 29.878494-29.877471L870.545002 153.472394zM780.899286 661.396565l-418.286642 0c-16.504906 0-29.878494-13.393032-29.878494-29.91738 0-16.48444 13.373589-29.877471 29.878494-29.877471l418.286642 0c16.504906 0 29.878494 13.393032 29.878494 29.877471C810.777781 648.003534 797.404192 661.396565 780.899286 661.396565zM780.899286 482.103086l-418.286642 0c-16.504906 0-29.878494-13.390985-29.878494-29.877471 0-16.48444 13.373589-29.877471 29.878494-29.877471l418.286642 0c16.504906 0 29.878494 13.393032 29.878494 29.877471C810.777781 468.711078 797.404192 482.103086 780.899286 482.103086zM601.639576 302.83826 362.613668 302.83826c-16.504906 0-29.878494-13.363356-29.878494-29.857005 0-16.524348 13.373589-29.887704 29.878494-29.887704l239.026932 0c16.504906 0 29.868261 13.363356 29.868261 29.887704C631.507838 289.475927 618.144482 302.83826 601.639576 302.83826zM810.788014 960.16002 153.465231 960.16002c-32.999578 0-59.756989-26.756387-59.756989-59.784618L93.708242 243.093551c0-33.008788 26.75741-59.725266 59.756989-59.725266l0 717.006094 717.079772 0C870.543979 933.403632 843.789639 960.16002 810.788014 960.16002z" p-id="865" data-spm-anchor-id="a313x.7781069.0.i0" class="selected" fill="#2c2c2c"></path></svg>