<?xml version="1.0" standalone="no"?><!DOCTYPE svg PUBLIC "-//W3C//DTD SVG 1.1//EN" "http://www.w3.org/Graphics/SVG/1.1/DTD/svg11.dtd"><svg t="1544602580096" class="icon" style="" viewBox="0 0 1024 1024" version="1.1" xmlns="http://www.w3.org/2000/svg" p-id="1055" xmlns:xlink="http://www.w3.org/1999/xlink" width="200" height="200"><defs><style type="text/css"></style></defs><path d="M959 844.281a114.5 114.5 0 0 1-229 0v-24.01A165.045 165.045 0 0 1 595 658v-47.1a30 30 0 0 1 30-29.9h58a30 30 0 0 1 0 60h-28v17a105 105 0 0 0 210 0v-17h-28a30 30 0 0 1 0-60h58a30 30 0 0 1 30 29.9V658a165.045 165.045 0 0 1-135 162.271V844.5a54.5 54.5 0 0 0 109 0V839v-0.219a30 30 0 0 1 60 0c0 0.074 0 0.146-0.006 0.219H959v5.281zM467.205 627.043a29.979 29.979 0 1 1 0 59.957H245.979a29.979 29.979 0 1 1 0-59.957h221.226zM216 366.979A29.979 29.979 0 0 1 245.979 337h448.042a29.979 29.979 0 1 1 0 59.957H245.979A29.979 29.979 0 0 1 216 366.979zM581.021 542H245.979A29.979 29.979 0 0 1 216 512.021v-0.042A29.979 29.979 0 0 1 245.979 482h335.042A29.979 29.979 0 0 1 611 511.979v0.042A29.979 29.979 0 0 1 581.021 542zM845 482a30 30 0 0 1-30-30V145a20 20 0 0 0-20-20H145a20 20 0 0 0-20 20v734a20 20 0 0 0 20 20h411a30 30 0 0 1 0 60H115a50 50 0 0 1-50-50V115a50 50 0 0 1 50-50h710a50 50 0 0 1 50 50v337a30 30 0 0 1-30 30z" fill="#333333" p-id="1056"></path></svg>