<?xml version="1.0" encoding="utf-8"?>
<svg version="1.1" xmlns:xlink="http://www.w3.org/1999/xlink" width="17px" height="15px" xmlns="http://www.w3.org/2000/svg">
  <g transform="matrix(1 0 0 1 -1522 -39 )">
    <path d="M 12.8828124999999 13.564453125  C 13.0122195512821 13.4407552083333  13.0769230769231 13.2942708333333  13.0769230769231 13.125  C 13.0769230769231 12.9557291666667  13.0122195512821 12.8092447916667  12.8828124999999 12.685546875  C 12.7534054487179 12.5618489583333  12.6001602564103 12.5  12.4230769230769 12.5  C 12.2459935897436 12.5  12.0927483974359 12.5618489583333  11.9633413461539 12.685546875  C 11.8339342948717 12.8092447916667  11.7692307692307 12.9557291666667  11.7692307692307 13.125  C 11.7692307692307 13.2942708333333  11.8339342948717 13.4407552083333  11.9633413461539 13.564453125  C 12.0927483974359 13.6881510416667  12.2459935897436 13.75  12.4230769230769 13.75  C 12.6001602564103 13.75  12.7534054487179 13.6881510416667  12.8828124999999 13.564453125  Z M 15.4981971153846 13.564453125  C 15.6276041666667 13.4407552083333  15.6923076923077 13.2942708333333  15.6923076923077 13.125  C 15.6923076923077 12.9557291666667  15.6276041666667 12.8092447916667  15.4981971153846 12.685546875  C 15.3687900641026 12.5618489583333  15.2155448717948 12.5  15.0384615384615 12.5  C 14.8613782051283 12.5  14.7081330128205 12.5618489583333  14.5787259615384 12.685546875  C 14.4493189102564 12.8092447916667  14.3846153846154 12.9557291666667  14.3846153846154 13.125  C 14.3846153846154 13.2942708333333  14.4493189102564 13.4407552083333  14.5787259615384 13.564453125  C 14.7081330128205 13.6881510416667  14.8613782051283 13.75  15.0384615384615 13.75  C 15.2155448717948 13.75  15.3687900641026 13.6881510416667  15.4981971153846 13.564453125  Z M 16.7139423076923 10.2734375  C 16.9046474358975 10.4557291666667  17 10.6770833333333  17 10.9375  L 17 14.0625  C 17 14.3229166666667  16.9046474358975 14.5442708333333  16.7139423076923 14.7265625  C 16.5232371794872 14.9088541666667  16.2916666666666 15  16.0192307692307 15  L 0.980769230769258 15  C 0.708333333333373 15  0.476762820512829 14.9088541666667  0.286057692307745 14.7265625  C 0.0953525641025421 14.5442708333333  0 14.3229166666667  0 14.0625  L 0 10.9375  C 0 10.6770833333333  0.0953525641025421 10.4557291666667  0.286057692307745 10.2734375  C 0.476762820512829 10.0911458333333  0.708333333333373 10  0.980769230769258 10  L 5.73137019230763 10  L 7.11057692307697 11.328125  C 7.505608974359 11.6927083333333  7.96874999999997 11.875  8.5 11.875  C 9.03125000000003 11.875  9.494391025641 11.6927083333333  9.88942307692303 11.328125  L 11.2788461538462 10  L 16.0192307692307 10  C 16.2916666666666 10  16.5232371794872 10.0911458333333  16.7139423076923 10.2734375  Z M 13.0769230769231 5  C 13.3629807692307 5  13.5639022435897 5.126953125  13.6796875 5.380859375  C 13.7954727564103 5.64778645833333  13.7477964743589 5.87565104166667  13.5366586538461 6.064453125  L 8.95973557692303 10.439453125  C 8.83713942307689 10.5631510416667  8.68389423076921 10.625  8.5 10.625  C 8.31610576923079 10.625  8.16286057692311 10.5631510416667  8.04026442307697 10.439453125  L 3.46334134615388 6.064453125  C 3.25220352564107 5.87565104166667  3.20452724358974 5.64778645833333  3.32031250000001 5.380859375  C 3.43609775641028 5.126953125  3.63701923076929 5  3.92307692307691 5  L 6.53846153846148 5  L 6.53846153846148 0.625  C 6.53846153846148 0.455729166666671  6.60316506410261 0.309244791666671  6.73257211538462 0.185546875  C 6.86197916666663 0.0618489583333286  7.01522435897431 0  7.19230769230766 0  L 9.80769230769234 0  C 9.98477564102569 0  10.1380208333334 0.0618489583333286  10.2674278846154 0.185546875  C 10.3968349358974 0.309244791666671  10.4615384615385 0.455729166666671  10.4615384615385 0.625  L 10.4615384615385 5  L 13.0769230769231 5  Z " fill-rule="nonzero" fill="#183474" stroke="none" transform="matrix(1 0 0 1 1522 39 )" />
  </g>
</svg>